<svg width="1000" height="1000" xmlns="http://www.w3.org/2000/svg">

 <g>
  <title>Layer 1</title>
  <g id="svg_1">
   <polygon id="svg_2" points="4.9000244140625,259.4000015258789 90.0999755859375,209.9000015258789 238.4000244140625,295.5 153.20001220703125,345.1000061035156 " fill="#92A330"/>
   <g id="svg_3">
    <path id="svg_4" d="m148.5,263l-5.5,3.2c3.6,2.2 5.3,4.2 6.2,5.9l-7,2.2c-0.8,-1.2 -2,-3.5 -6.1,-5.8c-4.2,-2.4 -7.8,-2 -9.8,-0.9c-2.4,1.4 -1.6,3.4 1.4,7.5c4.2,5.3 4,8.8 -1.3,11.9c-5,2.9 -12.9,3.5 -20.5,0.3l-6.1,3.5l-4.8,-2.8l5.7,-3.3c-3.6,-2.2 -6.3,-5 -7,-7.1l7.1,-2.3c1,2.1 3,4.8 6.7,6.8c3.7,2.2 8.1,2.6 10.9,0.9c2.7,-1.5 2.3,-3.7 -0.5,-7.2c-4,-4.9 -5.2,-8.9 0.3,-12.1c5.1,-2.9 12.5,-3.2 19.6,-0.3l5.8,-3.4l4.9,3z" fill="#92A330"/>
   </g>
   <polygon id="svg_5" points="4.9000244140625,259.4000015258789 4.9000244140625,281 153.20001220703125,366.6999969482422 238.4000244140625,317.1999969482422 238.4000244140625,295.5 153.20001220703125,345.1000061035156 " fill="#89992D"/>
   <path id="svg_6" d="m215.6,301.4l0,0c-5.6,-3.2 -5.6,-8.5 -0.1,-11.7l-115.2,-66.6c-5.6,3.2 -14.7,3.2 -20.3,0l-52.4,30.4c5.6,3.2 5.6,8.5 0.1,11.7l115.3,66.6c5.6,-3.2 14.7,-3.2 20.3,0l0,0l52.3,-30.4z" fill="#CBCB45"/>
   <g id="svg_7">
    <path id="svg_8" d="m149.2,262.7l-5.6,3.3c3.7,2.3 5.4,4.3 6.4,6l-7.2,2.3c-0.8,-1.2 -2.1,-3.6 -6.2,-6c-4.2,-2.5 -7.9,-2.1 -10,-0.9c-2.5,1.4 -1.7,3.5 1.4,7.7c4.3,5.4 4,9 -1.3,12.2c-5.1,3 -13.2,3.5 -21,0.3l-6.2,3.6l-5,-2.9l5.8,-3.4c-3.7,-2.3 -6.4,-5.1 -7.2,-7.2l7.3,-2.3c1,2.2 3.1,4.9 6.8,7c3.8,2.2 8.3,2.6 11.2,0.9c2.7,-1.6 2.3,-3.8 -0.5,-7.4c-4.1,-5 -5.3,-9.1 0.3,-12.3c5.2,-3 12.8,-3.2 20,-0.3l5.9,-3.4l5.1,2.8z" fill="#92A330"/>
   </g>
  </g>
 </g>
</svg>
