<svg width="1000" height="627" xmlns="http://www.w3.org/2000/svg">
 <!-- Created with Method Draw - http://github.com/duopixel/Method-Draw/ -->
 <g id="Layer_1">
  <title>Layer 1</title>
  <g id="svg_27">
   <g id="svg_2">
    <polygon id="svg_1" points="84.39999389648438,39 26.800018310546875,5.5999755859375 48.300018310546875,10.0999755859375 105.89999389648438,43.5999755859375 " fill="#C92127"/>
   </g>
   <g id="svg_4">
    <polygon id="svg_3" points="84.39999389648438,33.5 26.800018310546875,0 53.800018310546875,7 111.30001831054688,40.4000244140625 " fill="#34B44C"/>
   </g>
   <g id="svg_6">
    <polygon id="svg_5" points="84.39999389648438,39 105.89999389648438,43.5999755859375 106,87.29998779296875 63.100006103515625,112.0999755859375 63,68.29998779296875 " fill="#009444"/>
   </g>
   <g id="svg_8">
    <polygon id="svg_7" points="63,68.29998779296875 5.4000091552734375,34.9000244140625 26.800018310546875,5.5999755859375 84.39999389648438,39 " fill="#C92127"/>
   </g>
   <g id="svg_10">
    <polygon id="svg_9" points="63.100006103515625,112.0999755859375 5.600006103515625,78.5999755859375 5.4000091552734375,34.9000244140625 63,68.29998779296875 " fill="#02723B"/>
   </g>
   <g id="svg_12">
    <polygon id="svg_11" points="84.39999389648438,33.5 111.30001831054688,40.4000244140625 105.89999389648438,43.5999755859375 84.39999389648438,39 63,68.29998779296875 57.600006103515625,71.5 " fill="#19A54A"/>
   </g>
   <g id="svg_14">
    <polygon id="svg_13" points="57.600006103515625,71.5 0,38 26.800018310546875,0 84.39999389648438,33.5 " fill="#179948"/>
   </g>
   <g id="svg_23">
    <polygon id="svg_15" points="37.20001220703125,34.29998779296875 44.899993896484375,38.79998779296875 44.899993896484375,20.5 37.20001220703125,16 " fill="#02723B"/>
    <polygon id="svg_16" points="52.70001220703125,34.29998779296875 44.899993896484375,38.79998779296875 44.899993896484375,20.5 52.70001220703125,16 " fill="#038040"/>
    <g id="svg_22">
     <polygon id="svg_17" points="36.100006103515625,17.79998779296875 44.899993896484375,23 44.899993896484375,19.4000244140625 36.100006103515625,14.20001220703125 " fill="#046735"/>
     <polygon id="svg_18" points="44.899993896484375,23 53.800018310546875,17.79998779296875 53.800018310546875,14.20001220703125 44.899993896484375,19.4000244140625 " fill="#05703A"/>
     <path id="svg_19" d="m44.90001,9.1l-8.9,5.2l8.9,5.1l8.9,-5.1l-8.9,-5.2zm-6.2,5.1l6.2,-3.6l6.2,3.6l-6.2,3.6l-6.2,-3.6z" fill="#02723B"/>
     <polygon id="svg_20" points="44.899993896484375,10.5999755859375 44.899993896484375,17.79998779296875 38.70001220703125,14.20001220703125 " fill="#025E31"/>
     <polygon id="svg_21" points="51.100006103515625,14.20001220703125 44.899993896484375,10.5999755859375 44.899993896484375,17.79998779296875 " fill="#076B37"/>
    </g>
   </g>
  </g>
 </g>
</svg>